<svg width="800" height="800" viewBox="0 0 800 800" fill="none" xmlns="http://www.w3.org/2000/svg">
<g clip-path="url(#clip0_14_11)">
<rect width="800" height="800" fill="#C9C9C9"/>
<path d="M400 241C313.047 241 242.5 311.547 242.5 398.5C242.5 485.453 313.047 556 400 556C486.953 556 557.5 485.453 557.5 398.5C557.5 311.547 486.953 241 400 241ZM321.25 608.5C190.41 608.5 85 713.91 85 844.75V871C85 929.242 131.758 976 190 976H610C668.242 976 715 929.242 715 871V844.75C715 713.91 609.59 608.5 478.75 608.5H321.25Z" fill="white"/>
</g>
<defs>
<clipPath id="clip0_14_11">
<rect width="800" height="800" fill="#C9C9C9"/>
</clipPath>
</defs>
</svg>
